<svg xmlns="http://www.w3.org/2000/svg" xmlns:xlink="http://www.w3.org/1999/xlink" width="63" height="27" fill="none" xmlns:v="https://vecta.io/nano"><use xlink:href="#C" fill-rule="evenodd" fill="#fff"/><mask id="A" mask-type="alpha" maskUnits="userSpaceOnUse" x="0" y="0" width="63" height="27"><use xlink:href="#C" fill-rule="evenodd" fill="#fff"/></mask><g mask="url(#A)"><path transform="rotate(305.17 -7.481 69.591)" fill="#fff" d="M-7.48 69.59h179.206v62.764H-7.48z"/></g><defs ><path id="C" d="M23.405 20.27c0 .683-.258 1.337-.728 1.84l-.075-.068.08.075c-2.47 2.6-5.962 4.107-9.58 4.107C5.878 26.222 0 20.426 0 13.302S5.878.38 13.102.38c3.446 0 6.7 1.31 9.163 3.685.435.426.942 1.214.942 2.035 0 1.49-1.23 2.704-2.742 2.704-.64 0-1.255-.22-1.745-.62l-.002.001a.75.75 0 0 0-.048-.039l.003-.004c-1.444-1.436-3.565-2.327-5.554-2.327-4.177 0-7.576 3.35-7.576 7.47s3.4 7.47 7.576 7.47c2.382 0 4.657-1.43 5.88-2.653l.05.05-.047-.053c.458-.4.92-.542 1.65-.542 1.518 0 2.752 1.217 2.752 2.713zm3.034-6.923c0 7.127 5.88 12.926 13.106 12.926s13.107-5.8 13.107-12.926S46.77.422 39.545.422 26.44 6.22 26.44 13.347zm5.472-.02c0-4.14 3.416-7.51 7.614-7.51s7.615 3.368 7.615 7.51-3.416 7.51-7.615 7.51-7.614-3.368-7.614-7.51zM59.568 26.38h-.49c-1.377 0-2.486-1.224-2.486-2.237l-.017-21.467C56.575 1.67 57.73.44 59.08.44h.49c1.377 0 2.485 1.224 2.485 2.237l.018 21.467c0 1.006-1.155 2.237-2.503 2.237z"/></defs></svg>